<svg width="48" height="48" viewBox="0 0 48 48" fill="none" xmlns="http://www.w3.org/2000/svg">
<path d="M27.25 14H20.75C18.9606 14.0026 17.2452 14.7147 15.98 15.98C14.7147 17.2452 14.0026 18.9606 14 20.75V27.25C14 29.0402 14.7112 30.7571 15.977 32.023C17.2429 33.2888 18.9598 34 20.75 34H27.25C29.0402 34 30.7571 33.2888 32.023 32.023C33.2888 30.7571 34 29.0402 34 27.25V20.75C33.9974 18.9606 33.2853 17.2452 32.0201 15.98C30.7548 14.7147 29.0394 14.0026 27.25 14ZM29.75 27.95H23.91C23.7515 28.471 23.4297 28.9272 22.9922 29.2514C22.5547 29.5756 22.0245 29.7506 21.48 29.7506C20.9355 29.7506 20.4053 29.5756 19.9678 29.2514C19.5303 28.9272 19.2085 28.471 19.05 27.95H18.25C18.0511 27.95 17.8603 27.871 17.7197 27.7303C17.579 27.5897 17.5 27.3989 17.5 27.2C17.5 27.0011 17.579 26.8103 17.7197 26.6697C17.8603 26.529 18.0511 26.45 18.25 26.45H19.05C19.2085 25.929 19.5303 25.4728 19.9678 25.1486C20.4053 24.8244 20.9355 24.6494 21.48 24.6494C22.0245 24.6494 22.5547 24.8244 22.9922 25.1486C23.4297 25.4728 23.7515 25.929 23.91 26.45H29.75C29.9489 26.45 30.1397 26.529 30.2803 26.6697C30.421 26.8103 30.5 27.0011 30.5 27.2C30.5 27.3989 30.421 27.5897 30.2803 27.7303C30.1397 27.871 29.9489 27.95 29.75 27.95ZM29.75 21.56H28.95C28.7915 22.081 28.4697 22.5372 28.0322 22.8614C27.5947 23.1856 27.0646 23.3606 26.52 23.3606C25.9755 23.3606 25.4453 23.1856 25.0078 22.8614C24.5703 22.5372 24.2485 22.081 24.09 21.56H18.25C18.0511 21.56 17.8603 21.481 17.7197 21.3403C17.579 21.1997 17.5 21.0089 17.5 20.81C17.5 20.6111 17.579 20.4203 17.7197 20.2797C17.8603 20.139 18.0511 20.06 18.25 20.06H24.09C24.2485 19.539 24.5703 19.0828 25.0078 18.7586C25.4453 18.4344 25.9755 18.2594 26.52 18.2594C27.0646 18.2594 27.5947 18.4344 28.0322 18.7586C28.4697 19.0828 28.7915 19.539 28.95 20.06H29.75C29.9489 20.06 30.1397 20.139 30.2803 20.2797C30.421 20.4203 30.5 20.6111 30.5 20.81C30.5 21.0089 30.421 21.1997 30.2803 21.3403C30.1397 21.481 29.9489 21.56 29.75 21.56Z" fill="#000000"/>
<path d="M22.5309 27.2005C22.5272 27.3337 22.4969 27.4648 22.4419 27.5861C22.3868 27.7074 22.3081 27.8164 22.2103 27.9069C22.1126 27.9973 21.9977 28.0673 21.8725 28.1128C21.7473 28.1583 21.6143 28.1782 21.4812 28.1716C21.3482 28.1649 21.2178 28.1317 21.0978 28.074C20.9778 28.0163 20.8705 27.9351 20.7822 27.8354C20.694 27.7356 20.6265 27.6192 20.5839 27.493C20.5412 27.3668 20.5242 27.2334 20.5339 27.1005C20.5528 26.8399 20.6729 26.597 20.8687 26.4238C21.0645 26.2506 21.3202 26.161 21.5813 26.1741C21.8423 26.1872 22.0878 26.3019 22.2653 26.4937C22.4428 26.6856 22.5381 26.9393 22.5309 27.2005ZM27.5609 20.8105C27.5609 21.0758 27.4555 21.3301 27.268 21.5177C27.0804 21.7052 26.8261 21.8105 26.5609 21.8105C26.2957 21.8105 26.0413 21.7052 25.8538 21.5177C25.6662 21.3301 25.5609 21.0758 25.5609 20.8105C25.5609 20.5453 25.6662 20.291 25.8538 20.1034C26.0413 19.9159 26.2957 19.8105 26.5609 19.8105C26.8261 19.8105 27.0804 19.9159 27.268 20.1034C27.4555 20.291 27.5609 20.5453 27.5609 20.8105Z" fill="#000000"/>
</svg>
